# ProBuilder 5.0.7
# https://unity3d.com/unity/features/worldbuilding/probuilder
# 15.04.2023 22:07:20

mtllib ./Pentagon.mtl
o Pentagon

g Pentagon
v -0.4522552 -0.5 0
v -0.4522552 0.5 0
v -0.1067619 -0.5 0.4755287
v -0.1067619 0.5 0.4755287
v 0.4522514 -0.5 0.2938919
v 0.4522514 0.5 0.2938919
v 0.4522514 -0.5 -0.2938919
v 0.4522514 0.5 -0.2938919
v -0.1067619 -0.5 -0.4755287
v -0.1067619 0.5 -0.4755287
v 0.04774475 -0.5 0
v 0.04774475 0.5 0

vt -0.2658297 -0.5
vt -0.2658297 0.5
vt 0.321957 -0.5
vt 0.321957 0.5
vt -0.2484847 -0.5
vt -0.2484847 0.5
vt 0.3392975 -0.5
vt 0.3392975 0.5
vt -0.2938919 -0.5
vt -0.2938919 0.5
vt 0.2938919 -0.5
vt 0.2938919 0.5
vt -0.3392975 -0.5
vt -0.3392975 0.5
vt 0.2484847 -0.5
vt 0.2484847 0.5
vt -0.321957 -0.5
vt -0.321957 0.5
vt 0.2658297 -0.5
vt 0.2658297 0.5
vt -0.4522552 0
vt 0.04774475 0
vt -0.1067619 0.4755287
vt 0.4522552 0
vt -0.04774475 0
vt 0.1067619 0.4755287
vt 0.4522514 0.2938919
vt -0.4522514 0.2938919
vt 0.4522514 -0.2938919
vt -0.4522514 -0.2938919
vt -0.1067619 -0.4755287
vt 0.1067619 -0.4755287

vn -0.8090158 0 0.5877869
vn 0.3090206 0 0.9510553
vn 1 0 0
vn 0.3090206 0 -0.9510553
vn -0.8090158 0 -0.5877869
vn 0 -1 0
vn 0 1 0

usemtl ProBuilderDefault
f 1/21/6 11/22/6 3/23/6
f 3/23/6 11/22/6 5/27/6
f 5/27/6 11/22/6 7/29/6
f 7/29/6 11/22/6 9/31/6
f 9/31/6 11/22/6 1/21/6
f 4/26/7 12/25/7 2/24/7
f 6/28/7 12/25/7 4/26/7
f 8/30/7 12/25/7 6/28/7
f 10/32/7 12/25/7 8/30/7
f 2/24/7 12/25/7 10/32/7
f 4/4/1 2/2/1 1/1/1
f 1/1/1 3/3/1 4/4/1
f 6/8/2 4/6/2 3/5/2
f 3/5/2 5/7/2 6/8/2
f 8/12/3 6/10/3 5/9/3
f 5/9/3 7/11/3 8/12/3
f 10/16/4 8/14/4 7/13/4
f 7/13/4 9/15/4 10/16/4
f 2/20/5 10/18/5 9/17/5
f 9/17/5 1/19/5 2/20/5

