# ProBuilder 5.2.2
# https://unity3d.com/unity/features/worldbuilding/probuilder
# 30.09.2024 10:54:23

mtllib ./Heptagon.mtl
o Heptagon

g Heptagon
v -0.4752421 -0.5 0
v -0.4752421 0.5 0
v -0.2869871 -0.5 0.3909158
v -0.2869871 0.5 0.3909158
v 0.1360183 -0.5 0.487464
v 0.1360183 0.5 0.487464
v 0.4752423 -0.5 0.2169418
v 0.4752423 0.5 0.2169418
v 0.4752424 -0.5 -0.2169418
v 0.4752424 0.5 -0.2169418
v 0.1360184 -0.5 -0.487464
v 0.1360184 0.5 -0.487464
v -0.2869872 -0.5 -0.3909156
v -0.2869872 0.5 -0.3909156
v 0.02475786 -0.5 0
v 0.02475786 0.5 0

vt -0.2061998 -0.5
vt -0.2061998 0.5
vt 0.2276839 -0.5
vt 0.2276839 0.5
vt -0.1928048 -0.5
vt -0.1928048 0.5
vt 0.2410789 -0.5
vt 0.2410789 0.5
vt -0.1975854 -0.5
vt -0.1975854 0.5
vt 0.2362984 -0.5
vt 0.2362984 0.5
vt -0.2169418 -0.5
vt -0.2169418 0.5
vt 0.2169419 -0.5
vt 0.2169419 0.5
vt -0.2362984 -0.5
vt -0.2362984 0.5
vt 0.1975854 -0.5
vt 0.1975854 0.5
vt -0.2410791 -0.5
vt -0.2410791 0.5
vt 0.1928049 -0.5
vt 0.1928049 0.5
vt -0.2276838 -0.5
vt -0.2276838 0.5
vt 0.2061998 -0.5
vt 0.2061998 0.5
vt -0.4752421 0
vt 0.02475786 0
vt -0.2869871 0.3909158
vt 0.4752421 0
vt -0.02475786 0
vt 0.2869871 0.3909158
vt 0.1360183 0.487464
vt -0.1360183 0.487464
vt 0.4752423 0.2169418
vt -0.4752423 0.2169418
vt 0.4752424 -0.2169418
vt -0.4752424 -0.2169418
vt 0.1360184 -0.487464
vt -0.1360184 -0.487464
vt -0.2869872 -0.3909156
vt 0.2869872 -0.3909156

vn -0.9009689 0 0.4338837
vn -0.2225209 0 0.974928
vn 0.6234897 0 0.7818315
vn 1 0 1.373747E-07
vn 0.6234899 0 -0.7818315
vn -0.2225211 0 -0.9749279
vn -0.900969 0 -0.4338835
vn 0 -1 0
vn 0 1 0

usemtl HeptagonMat
f 1/29/8 15/30/8 3/31/8
f 3/31/8 15/30/8 5/35/8
f 5/35/8 15/30/8 7/37/8
f 7/37/8 15/30/8 9/39/8
f 9/39/8 15/30/8 11/41/8
f 11/41/8 15/30/8 13/43/8
f 13/43/8 15/30/8 1/29/8
f 4/34/9 16/33/9 2/32/9
f 6/36/9 16/33/9 4/34/9
f 8/38/9 16/33/9 6/36/9
f 10/40/9 16/33/9 8/38/9
f 12/42/9 16/33/9 10/40/9
f 14/44/9 16/33/9 12/42/9
f 2/32/9 16/33/9 14/44/9
f 4/4/1 2/2/1 1/1/1
f 1/1/1 3/3/1 4/4/1
f 6/8/2 4/6/2 3/5/2
f 3/5/2 5/7/2 6/8/2
f 8/12/3 6/10/3 5/9/3
f 5/9/3 7/11/3 8/12/3
f 10/16/4 8/14/4 7/13/4
f 7/13/4 9/15/4 10/16/4
f 12/20/5 10/18/5 9/17/5
f 9/17/5 11/19/5 12/20/5
f 14/24/6 12/22/6 11/21/6
f 11/21/6 13/23/6 14/24/6
f 2/28/7 14/26/7 13/25/7
f 13/25/7 1/27/7 2/28/7

